# xmcd
#
# Track frame offsets: 
#        150
#        19032
#        34232
#        48942
#        66222
#        85556
#        103436
#        121384
#        136298
#        150103
#        166979
#        183606
#        200788
#        215810
#        231403
#        245587
#        265745
#        280046
#        295128
#        310876
#
# Disc length: 4341 seconds
#
# Revision: 2
# Processed by: cddbd v1.5.2PL0 Copyright (c) Steve Scherf et al.
# Submitted via: ExactAudioCopy v0.99pb5
#
DISCID=2610f314
DTITLE=Various Artist - Die deutsche Schlagerparade - 2006-1 - CD 1
DYEAR=2005
DGENRE=Schlager
TTITLE0=Semino Rossi - Solo hay una para mí
TTITLE1=Anke Lautenbach - Wieder Sommer
TTITLE2=Wind - Nimm mich mit
TTITLE3=Andrea Jürgens - Gleich nebenan
TTITLE4=Nicole - Der erste Tag ohne dich
TTITLE5=Peter Sebastian and Philipp Martin - Kinderaugen lachen
TTITLE6=Andreas Fulterer - Ich will nicht länger nur nachts von dir tr
TTITLE6=äumen
TTITLE7=Frank Chagall - Gib mir meinen Kuss zurück
TTITLE8=Ines Adler - Sie ist verrückt nach dir
TTITLE9=Viola Jahn - Es war doch nur einmal
TTITLE10=Reim - Ich bin nicht verliebt (unverwundbar)
TTITLE11=Jennifer - Du bist immer noch ein Teil von mir
TTITLE12=Gaby Baginsky - Einmal entschieden (gibt es keinen Weg zurück
TTITLE12=)
TTITLE13=Juliane Werding - Engel an deiner Seite
TTITLE14=Jens Bogner - Es gibt doch keinen Grund zu lügen
TTITLE15=Katja Ebstein - Ungläubig
TTITLE16=Andreas Martin - Zieh doch das rote Kleid an
TTITLE17=Uta Bresan - Was man über sie erzählt
TTITLE18=Kristina Bach - Reden ist Silber und Küssen Gold
TTITLE19=G.G. Anderson - Eine Stunde dein Mann zu sein
EXTD=
EXTT0=
EXTT1=
EXTT2=
EXTT3=
EXTT4=
EXTT5=
EXTT6=
EXTT7=
EXTT8=
EXTT9=
EXTT10=
EXTT11=
EXTT12=
EXTT13=
EXTT14=
EXTT15=
EXTT16=
EXTT17=
EXTT18=
EXTT19=
PLAYORDER=
